<?xml version="1.0" standalone="no"?><!DOCTYPE svg PUBLIC "-//W3C//DTD SVG 1.1//EN" "http://www.w3.org/Graphics/SVG/1.1/DTD/svg11.dtd"><svg t="1557884618480" class="icon" style="" viewBox="0 0 1024 1024" version="1.1" xmlns="http://www.w3.org/2000/svg" p-id="3507" xmlns:xlink="http://www.w3.org/1999/xlink" width="32" height="32"><defs><style type="text/css"></style></defs><path d="M518.8 518.8m-414.1 0a414.1 414.1 0 1 0 828.2 0 414.1 414.1 0 1 0-828.2 0Z" fill="#FEDB45" p-id="3508"></path><path d="M512 64C264.6 64 64 264.6 64 512s200.6 448 448 448 448-200.6 448-448S759.4 64 512 64z m0 830.9c-211.4 0-382.8-171.4-382.8-382.8S300.6 129.3 512 129.3s382.8 171.4 382.8 382.8c0.1 211.3-171.3 382.8-382.8 382.8z m0-501.7c-17.7 0-32.1 14.4-32.1 32.1v289.3c0 17.8 14.4 32.1 32.1 32.2 17.8 0 32.1-14.4 32.2-32.1V425.3c-0.1-17.7-14.5-32.1-32.2-32.1z m-40.6-84.8c0.2 22.4 18.5 40.5 41 40.3 22.4-0.2 40.5-18.5 40.3-41-0.2-22.3-18.3-40.3-40.6-40.3-22.5 0-40.7 18.3-40.6 40.8-0.1 0.1-0.1 0.1-0.1 0.2z" fill="" p-id="3509"></path></svg>