<?xml version="1.0" standalone="no"?><!DOCTYPE svg PUBLIC "-//W3C//DTD SVG 1.1//EN" "http://www.w3.org/Graphics/SVG/1.1/DTD/svg11.dtd"><svg t="1557802944151" class="icon" style="" viewBox="0 0 1024 1024" version="1.1" xmlns="http://www.w3.org/2000/svg" p-id="3214" xmlns:xlink="http://www.w3.org/1999/xlink" width="32" height="32"><defs><style type="text/css"></style></defs><path d="M412.29 149.16c10.6-10.48 25.83-16.09 40.7-15 11.78 0.71 22.83 6.4 31.47 14.23 7.28 6.5 12.89 14.53 18.88 22.16 0.98 1.2 1.72 2.72 3.18 3.43 8.52-11.11 16.2-23.47 28.14-31.29 11.16-7.59 25.34-10.37 38.56-7.71 12.94 2.4 24.76 9.9 32.68 20.38 9.01 11.7 12.61 27.29 9.91 41.78-1.78 9.59-6.24 18.62-12.72 25.9-10.23 13.16-20.16 26.55-30.13 39.91C675.68 408.31 767.45 561.43 846.7 720.83c3.73 8 8.55 15.61 10.65 24.28 3.52 14.04 1.26 29.54-6.63 41.74-9.54 15.73-27.6 25.01-45.74 25.76-33.3 2.81-66.64 5.08-100 6.96-30.34 1.49-60.65 3.7-91.02 4.39-68.65 1.84-137.32 0.65-205.96-0.9-24.64-0.89-49.33-0.77-73.94-2.35-41.05-1.9-82.05-4.71-122.99-8.1-14.31-1-28.67-6.52-38.54-17.18-9.84-10.17-15.4-24.29-15.19-38.42-0.25-9.83 1.37-19.97 6.21-28.63 78.34-158.72 168.92-311.39 270.63-456.25 1.97-2.94 4.28-5.65 5.92-8.8-10.44-13.74-20.62-27.7-31.27-41.29-8.59-9.84-13.22-23-12.77-36.05 0.2-13.79 6.34-27.28 16.23-36.83m10.61 25.61c-4.39 8.92-3.71 20.05 1.7 28.39 15.3 19.89 30.47 39.91 45.24 60.21-107.03 149.6-201.76 307.96-283.41 472.77-8.2 13.8-7.18 33.97 5.55 44.76 6.27 5.67 14.85 7.25 23 7.97 49.42 3.95 98.92 7.47 148.48 8.97-0.37-5.35 3.14-9.72 5.01-14.47 35.83-76.66 77.22-150.7 123.15-221.77 1.57-2.41 3.09-4.87 4.87-7.14 6.33-7.81 17.85-10.83 27.17-6.96 5.22 1.94 9.5 5.88 12.31 10.65 48.38 74.48 91.71 152.28 128.98 232.91 1.06 2.03 1.14 4.37 1.25 6.62 41.91-2.4 83.85-4.49 125.68-8.1 8.8-0.85 18.04-0.58 26.19-4.5 9.85-4.68 16.71-15.08 16.91-26.01 0.27-5.84-1.54-11.56-4.35-16.62-82.47-167.39-178.79-327.94-287.34-479.73 14.59-19.87 29.31-39.67 44.51-59.08 4.77-7.19 6.19-16.52 3.59-24.77-3.71-12.93-17.13-21.98-30.49-20.79-9.16 0.55-16.9 6.48-22.39 13.45-10.84 14.08-21.57 28.25-32.06 42.59-8.83-11.44-17.54-22.97-26.34-34.42-6.4-8.14-13.1-17.19-23.34-20.57-13.11-4.07-28.15 3.36-33.87 15.64m82.91 409.05c-43.84 68.92-83.74 140.44-117.84 214.69 49.65 1.29 99.31 2.33 148.98 2.37 35.11-0.07 70.23-0.25 105.29-2.05-4.49-8.96-8.58-18.13-12.98-27.14-33.85-69.51-71.92-136.98-114.28-201.66-3.42 4.31-5.98 9.28-9.17 13.79z" fill="#f4ea2a" p-id="3215"></path><path d="M422.9 174.77c5.72-12.28 20.76-19.71 33.87-15.64 10.24 3.38 16.94 12.43 23.34 20.57 8.8 11.45 17.51 22.98 26.34 34.42 10.49-14.34 21.22-28.51 32.06-42.59 5.49-6.97 13.23-12.9 22.39-13.45 13.36-1.19 26.78 7.86 30.49 20.79 2.6 8.25 1.18 17.58-3.59 24.77-15.2 19.41-29.92 39.21-44.51 59.08 108.55 151.79 204.87 312.34 287.34 479.73 2.81 5.06 4.62 10.78 4.35 16.62-0.2 10.93-7.06 21.33-16.91 26.01-8.15 3.92-17.39 3.65-26.19 4.5-41.83 3.61-83.77 5.7-125.68 8.1-0.11-2.25-0.19-4.59-1.25-6.62-37.27-80.63-80.6-158.43-128.98-232.91-2.81-4.77-7.09-8.71-12.31-10.65-9.32-3.87-20.84-0.85-27.17 6.96-1.78 2.27-3.3 4.73-4.87 7.14-45.93 71.07-87.32 145.11-123.15 221.77-1.87 4.75-5.38 9.12-5.01 14.47-49.56-1.5-99.06-5.02-148.48-8.97-8.15-0.72-16.73-2.3-23-7.97-12.73-10.79-13.75-30.96-5.55-44.76 81.65-164.81 176.38-323.17 283.41-472.77-14.77-20.3-29.94-40.32-45.24-60.21-5.41-8.34-6.09-19.47-1.7-28.39z" fill="#f4ea2a" p-id="3216"></path></svg>