<?xml version="1.0" standalone="no"?><!DOCTYPE svg PUBLIC "-//W3C//DTD SVG 1.1//EN" "http://www.w3.org/Graphics/SVG/1.1/DTD/svg11.dtd"><svg t="1557884952906" class="icon" style="" viewBox="0 0 1024 1024" version="1.1" xmlns="http://www.w3.org/2000/svg" p-id="9053" xmlns:xlink="http://www.w3.org/1999/xlink" width="32" height="32"><defs><style type="text/css"></style></defs><path d="M313.6 306.8h56.5L345 448.2h63.7l24.6-141.4h57.1l8.8-50.6H322.4z m274.9 77l-11-127.6h-64l32.1 192h63.8l101-192h-63.8zM808 671.9a24.2 24.2 0 1 0 48.4 0 24.2 24.2 0 1 0-48.4 0z" fill="#00A06B" p-id="9054"></path><path d="M783.9 927H240.1c-5.9 0-10.6-5.4-10.6-12.1 0-6.7 4.7-12.1 10.6-12.1H784c5.9 0 10.6 5.4 10.6 12.1-0.1 6.7-4.8 12.1-10.7 12.1z m131.7-159.2H108.4c-24.5 0-44.4-20.3-44.4-45.2V143.3c0-24.9 19.9-45.2 44.4-45.2h807.2c24.5 0 44.4 20.3 44.4 45.2v579.3c0 24.9-19.9 45.2-44.4 45.2z m-807.2-645c-11.1 0-20.2 9.2-20.2 20.5v579.3c0 11.3 9 20.5 20.2 20.5h807.2c11.1 0 20.2-9.2 20.2-20.5V143.3c0-11.3-9-20.5-20.2-20.5H108.4z" fill="#00A06B" p-id="9055"></path><path d="M76.1 576h871.8v24.2H76.1z" fill="#00A06B" p-id="9056"></path></svg>