<?xml version="1.0" standalone="no"?><!DOCTYPE svg PUBLIC "-//W3C//DTD SVG 1.1//EN" "http://www.w3.org/Graphics/SVG/1.1/DTD/svg11.dtd"><svg t="1557884647617" class="icon" style="" viewBox="0 0 1024 1024" version="1.1" xmlns="http://www.w3.org/2000/svg" p-id="4471" xmlns:xlink="http://www.w3.org/1999/xlink" width="32" height="32"><defs><style type="text/css"></style></defs><path d="M512 1024C229.226667 1024 0 794.773333 0 512S229.226667 0 512 0s512 229.226667 512 512-229.226667 512-512 512z m0-64c247.424 0 448-200.576 448-448S759.424 64 512 64 64 264.576 64 512s200.576 448 448 448z m233.237333-430.933333L418.133333 774.4a21.333333 21.333333 0 0 1-34.133333-17.066667v-490.666666a21.333333 21.333333 0 0 1 34.133333-17.066667l327.104 245.333333a21.333333 21.333333 0 0 1 0 34.133334z" fill="#5BDFD0" p-id="4472"></path></svg>