<?xml version="1.0" standalone="no"?><!DOCTYPE svg PUBLIC "-//W3C//DTD SVG 1.1//EN" "http://www.w3.org/Graphics/SVG/1.1/DTD/svg11.dtd"><svg t="1557802886039" class="icon" style="" viewBox="0 0 1025 1024" version="1.1" xmlns="http://www.w3.org/2000/svg" p-id="2011" xmlns:xlink="http://www.w3.org/1999/xlink" width="32.03125" height="32"><defs><style type="text/css"></style></defs><path d="M852.16136 597.57331625c-21.86259281-65.72748-89.02093687-89.73467625-104.31002062-91.16215406v-0.00254063c-15.29077687-1.42917094-29.14899563-9.860265-19.0050975-27.29310469 10.14728437-17.43368625 28.86282281-68.15994937-7.14077532-103.88076093-36.01121812-35.86643813-114.74855812-22.2918525-170.47522687 0.85851843-55.58442844 23.14783125-52.58299969 7.00276969-50.86934813-8.86035281 1.8567375-16.71740812 31.86425156-110.16979125-59.87278875-121.457535C320.31495969 231.05780281 166.13634875 379.807595 111.69068469 465.54516406 29.38465062 595.00284031 42.38773719 682.5979925 42.38773719 682.5979925h0.57234562c9.860265 120.88942219 187.90467938 217.19591438 406.10050688 217.19591531 187.61935313 0 345.65621813-71.30615812 392.38368-168.18499687 0 0 0.14054625-0.42841313 0.56726625-1.14638438 4.85985937-10.42668375 8.57672063-21.00407438 10.86610312-32.00564437 6.57012375-26.00702063 11.57560875-63.72511594-0.71627906-100.88356594zM422.05873719 846.92219469c-155.32668938 0-281.35791-83.45157281-281.35791-186.33072844 0-102.88169625 125.88898125-186.331575 281.35791-186.331575 155.32160906 0 281.35452375 83.44987875 281.35452375 186.331575 0 103.0222425-126.03291375 186.33072844-281.35452375 186.33072844z" fill="#E71F19" p-id="2012"></path><path d="M804.58553937 433.96369906c2.85156937 1.28693156 5.85469125 1.8567375 8.85781313 1.8567375 8.85781312 0 17.43368625-5.287425 21.00407531-14.00384531 5.85977063-13.86075844 8.85696656-28.57580344 8.85696563-43.86827344 0-62.014005-50.43670312-112.456635-112.45832813-112.456635-15.14515031 0-29.8618875 2.99973563-43.72603312 8.85696657-11.57391563 4.86070594-17.00104031 18.29135906-12.14710782 30.00920812 4.86070594 11.57391563 18.29135906 17.0044275 30.00582094 12.14626125 8.28970031-3.43238156 17.00696719-5.28996562 26.01040688-5.28996562 36.86550375 0 66.72823781 30.00920719 66.72823781 66.731625 0 9.00343969-1.71111094 17.71986-5.287425 26.00532656-4.99532531 11.7170025 0.42671906 25.14850125 12.14710781 30.00412781l0.00846656 0.00846656z" fill="#F5AA15" p-id="2013"></path><path d="M729.56421406 125.1695975c-25.57776094 0-50.86934906 3.71686125-75.161025 10.86017719-18.14742563 5.42797125-28.43440969 24.43306969-23.14783125 42.58049437 5.42712469 18.14996531 24.43222313 28.43695031 42.58472813 23.15037188a197.50586531 197.50586531 0 0 1 55.72412812-8.00183438c107.59931531 0 195.19446844 87.59599969 195.19446844 195.19277438 0 19.28957719-2.86257562 38.43522094-8.29054688 56.72658-5.42627812 18.14996531 4.71507938 37.29730313 22.86165844 42.72527531 3.29014125 1.00245187 6.71490281 1.42917094 10.00250438 1.42917094 14.71673719 0 28.29386344-9.57578531 32.86670343-24.29082938 7.43033531-24.71839594 11.28774281-50.44008937 11.28774282-76.59019687-0.13969969-145.4681175-118.45864594-263.78198344-263.92253063-263.78198344z" fill="#F5AA15" p-id="2014"></path><path d="M396.05002344 542.27506063c-82.87753312 0-150.03757031 58.72640344-150.03757032 131.32033874 0 72.58546875 67.1574975 131.32033969 150.03757032 131.32033969 82.87837969 0 150.03757031-58.73233031 150.03757125-131.32033969 0.00084656-72.59139563-67.15834406-131.32033969-150.03757125-131.32033875z m-49.01261157 216.62441531c-29.00760281 0-52.58130656-23.57455031-52.58130656-52.58130656s23.5779375-52.58215312 52.58130656-52.58215219c29.01098906 0 52.58384625 23.57709094 52.58384625 52.58215219s-23.57624438 52.58130656-52.58384625 52.58130656z m98.31224344-94.73423531c-6.28649062 11.00072344-19.00425094 15.57525656-28.29217031 10.142205-9.28622625-5.28657844-11.57391563-18.57414469-5.28657844-29.57571469 6.28733719-11.00665031 19.00425094-15.58033594 28.29132375-10.14813188 9.28791937 5.42881875 11.57391563 18.71977125 5.287425 29.58164157z" fill="#040000" p-id="2015"></path></svg>